<?xml version="1.0" encoding="UTF-8" standalone="no"?>
<!-- Created with Inkscape (http://www.inkscape.org/) -->

<svg
   width="161.96873mm"
   height="97.915321mm"
   viewBox="0 0 161.96873 97.915321"
   version="1.1"
   id="svg1"
   inkscape:version="1.4 (86a8ad7, 2024-10-11)"
   sodipodi:docname="footer-logo.svg"
   xmlns:inkscape="http://www.inkscape.org/namespaces/inkscape"
   xmlns:sodipodi="http://sodipodi.sourceforge.net/DTD/sodipodi-0.dtd"
   xmlns="http://www.w3.org/2000/svg"
   xmlns:svg="http://www.w3.org/2000/svg">
  <sodipodi:namedview
     id="namedview1"
     pagecolor="#ffffff"
     bordercolor="#000000"
     borderopacity="0.25"
     inkscape:showpageshadow="2"
     inkscape:pageopacity="0.0"
     inkscape:pagecheckerboard="0"
     inkscape:deskcolor="#d1d1d1"
     inkscape:document-units="mm"
     inkscape:zoom="0.52724989"
     inkscape:cx="195.35329"
     inkscape:cy="353.72222"
     inkscape:window-width="1920"
     inkscape:window-height="1017"
     inkscape:window-x="-8"
     inkscape:window-y="-8"
     inkscape:window-maximized="1"
     inkscape:current-layer="layer1" />
  <defs
     id="defs1">
    <rect
       x="99.913643"
       y="255.48387"
       width="391.60782"
       height="358.07977"
       id="rect3" />
  </defs>
  <g
     inkscape:label="Слой 1"
     inkscape:groupmode="layer"
     id="layer1"
     transform="translate(-10.583329,-37.306248)">
    <path
       d="m 70.222523,75.901924 -8.237298,17.140234 q -4.631746,9.651792 -7.599392,16.862892 H 53.276432 Q 52.250237,107.43663 47.39661,97.230148 L 37.467477,76.678504 v 21.439164 q 0,7.488452 0.582435,8.514652 0.61017,0.99846 3.716491,0.99846 h 1.026195 v 1.7473 q -3.855166,-0.19414 -6.268112,-0.19414 -1.747305,0 -6.961487,0.19414 v -1.7473 h 1.802775 q 1.830511,0 2.440681,-0.52697 0.61017,-0.52696 0.748846,-1.91371 0.360555,-3.8829 0.360555,-8.375982 v -15.69801 q 0,-5.685679 -0.249615,-7.51619 -0.11094,-0.94299 -0.832051,-1.44222 -0.693375,-0.49923 -2.801236,-0.49923 h -1.469955 v -1.747306 q 4.825891,0.194145 6.073967,0.194145 1.580895,0 4.493071,-0.194145 3.355937,7.460716 7.738068,16.446856 l 7.294308,15.004652 6.739607,-13.895242 q 3.550081,-7.29431 8.098623,-17.556266 3.466876,0.194145 4.881362,0.194145 1.636365,0 5.907559,-0.194145 v 1.747306 h -1.80278 q -2.440679,0 -2.995379,0.859785 -0.526965,0.83205 -0.526965,6.073965 v 20.27429 q 0,6.767352 0.5547,7.765812 0.582435,0.99846 3.189524,0.99846 h 1.5809 v 1.7473 q -3.855169,-0.19414 -7.377515,-0.19414 -3.882901,0 -8.126358,0.19414 v -1.7473 h 1.830511 q 2.191066,0 2.634826,-0.94299 0.471495,-0.97073 0.471495,-8.237302 z"
       id="text5"
       style="font-size:56.8013px;line-height:0px;font-family:'Book Antiqua';-inkscape-font-specification:'Book Antiqua, Normal';text-align:center;text-anchor:middle;fill:#ffffff;fill-opacity:1;stroke:#ffffff;stroke-width:0;stroke-linecap:round;stroke-linejoin:round;stroke-opacity:1"
       aria-label="M" />
    <path
       style="fill:#222736;fill-opacity:1;stroke:#ffffff;stroke-width:0;stroke-linecap:round;stroke-linejoin:round;stroke-dasharray:none;stroke-opacity:1"
       d="m 44.215608,78.698108 -2.563977,6.60987 -4.187042,11.08704 -2.78352,7.299882 L 31.670164,83.779008 28.721986,70.8572 29.035621,68.410839 40.702883,68.097204 Z"
       id="path5" />
    <path
       d="M 307.99243,254.43012 H 279.8944 l -3.30565,7.82661 q -3.25703,7.778 -3.25703,9.52805 0,1.11809 0.58335,1.60421 0.63196,0.48613 3.1112,0.7778 l 4.6668,0.53474 v 3.06259 q -4.6668,-0.34029 -10.5003,-0.34029 -7.0002,0 -12.29897,0.34029 v -3.06259 l 1.45838,-0.0486 q 3.40287,-0.0972 4.37512,-0.68058 1.02087,-0.63196 2.13895,-3.01397 3.45149,-7.0002 7.04882,-15.11849 L 287.2835,225.5543 q 5.34738,-12.0559 7.29188,-17.5005 h 3.30565 l 24.59793,57.21691 q 2.47923,5.8335 3.30565,7.04882 0.82641,1.1667 1.89588,1.70143 1.06948,0.48613 4.81264,0.68058 v 3.06259 q -6.31962,-0.34029 -12.0559,-0.34029 -5.34737,0 -14.24346,0.34029 v -3.06259 l 4.81264,-0.29168 q 2.57646,-0.19445 3.06258,-0.53473 0.72919,-0.53474 0.72919,-1.36115 0,-0.87503 -1.45837,-4.56958 z m -26.29936,-3.98623 h 24.5007 l -12.25035,-29.26472 z"
       id="text3"
       style="font-size:99.5584px;line-height:0px;font-family:'Book Antiqua';-inkscape-font-specification:'Book Antiqua, Normal';text-align:center;white-space:pre;fill:#ffffff;fill-opacity:1;stroke:#ffffff;stroke-width:0;stroke-linecap:round;stroke-linejoin:round;stroke-opacity:1"
       transform="matrix(0.57711142,0,0,0.56402845,-138.82724,-63.670172)"
       aria-label="A" />
    <path
       style="fill:#ffffff;fill-opacity:1;stroke:#ffffff;stroke-width:1;stroke-linecap:round;stroke-linejoin:round;stroke-dasharray:none;stroke-opacity:1"
       d="M 60.269441,37.806248 C 47.974315,70.112964 35.676402,102.42018 23.41057,134.72157"
       id="path3"
       sodipodi:nodetypes="cc" />
    <path
       style="fill:#222736;fill-opacity:1;stroke:#000000;stroke-width:0;stroke-linecap:round;stroke-linejoin:round;stroke-dasharray:none;stroke-opacity:1"
       d="m 49.968924,90.713052 1.152613,2.38364 2.297385,0.0157 -0.172501,-3.105 z"
       id="path6"
       sodipodi:nodetypes="ccccc" />
    <path
       style="fill:#222736;fill-opacity:1;stroke:#000000;stroke-width:0;stroke-linecap:round;stroke-linejoin:round;stroke-dasharray:none;stroke-opacity:1"
       d="m 39.434673,91.163912 -0.705681,1.90141 c 0,0 -0.991872,0.16858 -0.999714,0.1529 -0.0078,-0.0157 0.04704,-2.13272 0.04704,-2.13272 z"
       id="path7"
       sodipodi:nodetypes="ccccc" />
    <path
       style="fill:#222736;fill-opacity:1;stroke:#000000;stroke-width:0;stroke-linecap:round;stroke-linejoin:round;stroke-dasharray:none;stroke-opacity:1"
       d="m 45.366315,93.026122 -3.30561,-6.46132 -0.02046,-1.8e-4 -2.336294,6.69223 5.544749,0.18481 z"
       id="path8"
       sodipodi:nodetypes="cccccc" />
    <path
       d="M 111.45184,96.034172 H 95.421 l -1.885981,4.465338 q -1.858245,4.4376 -1.858245,5.43606 0,0.63791 0.33282,0.91526 0.360555,0.27735 1.77504,0.44376 l 2.662561,0.30508 v 1.74731 q -2.662561,-0.19415 -5.990762,-0.19415 -3.993841,0 -7.016957,0.19415 v -1.74731 l 0.83205,-0.0277 q 1.941451,-0.0555 2.496151,-0.38829 0.582435,-0.36056 1.22034,-1.71957 1.969186,-3.99385 4.021577,-8.625592 l 7.627127,-17.278911 q 3.050849,-6.878283 4.160249,-9.984604 h 1.88598 l 14.03392,32.644107 q 1.41448,3.3282 1.88598,4.02158 0.47149,0.66564 1.08166,0.97072 0.61017,0.27735 2.74577,0.38829 v 1.74731 q -3.60555,-0.19415 -6.87828,-0.19415 -3.05085,0 -8.12636,0.19415 v -1.74731 l 2.74577,-0.16641 q 1.46995,-0.11094 1.7473,-0.30508 0.41603,-0.30509 0.41603,-0.77658 0,-0.49923 -0.83205,-2.60709 z M 96.447195,93.759902 H 110.42564 L 103.43642,77.063426 Z M 135.69223,76.14817 v 19.164892 q 0,6.545458 0.24962,9.124818 0.19414,1.96919 0.6379,2.41295 0.4715,0.41602 2.66256,0.61017 l 1.77505,0.13867 v 1.74731 q -3.02312,-0.19415 -5.4638,-0.19415 -1.69184,0 -7.7658,0.19415 v -1.74731 h 1.99692 q 1.80277,0 2.35747,-0.49923 0.5547,-0.49923 0.69338,-1.96918 0.30508,-3.05086 0.30508,-8.292772 v -13.7843 q 0,-3.882902 -0.0832,-7.682598 -0.0555,-1.60863 -0.44376,-2.191066 -0.36056,-0.61017 -1.08167,-1.081665 -0.72111,-0.471495 -2.02465,-0.471495 h -1.71957 v -1.747306 q 3.52234,0.194145 5.38059,0.194145 1.99692,0 4.38213,-0.194145 2.74576,3.355936 5.15871,6.545462 2.44068,3.161792 5.04777,6.379053 l 9.48538,11.648704 q 5.13097,6.268113 7.40524,8.708793 V 85.356194 q 0,-11.177209 -0.41602,-12.203405 -0.38829,-1.05393 -3.18953,-1.33128 l -2.08012,-0.194145 v -1.747306 q 4.46533,0.194145 6.93375,0.194145 2.57935,0 6.6564,-0.194145 v 1.747306 h -2.13559 q -2.57936,0 -2.96765,1.71957 -0.24962,1.137136 -0.24962,12.147935 v 12.508489 q 0,5.047772 0.44376,12.064732 -3.77196,-0.58244 -4.38213,-0.85979 -0.61017,-0.24961 -1.16487,-0.85978 -3.07858,-3.41141 -6.46225,-7.57166 z"
       id="text8"
       style="font-size:56.8013px;line-height:0px;font-family:'Book Antiqua';-inkscape-font-specification:'Book Antiqua, Normal';text-align:center;text-anchor:middle;fill:#ffffff;fill-opacity:1;stroke:#ffffff;stroke-width:0;stroke-linecap:round;stroke-linejoin:round;stroke-opacity:1"
       aria-label="AN" />
    <path
       style="fill:#222736;fill-opacity:1;stroke:#000000;stroke-width:0;stroke-linecap:round;stroke-linejoin:round"
       d="m 41.994335,86.700652 2.89388,-7.10241 0.301425,0.23753 -2.905573,7.25725 z"
       id="path1"
       sodipodi:nodetypes="ccccc" />
    <path
       style="fill:#222736;fill-opacity:1;stroke:#000000;stroke-width:0;stroke-linecap:round;stroke-linejoin:round"
       d="m 33.535279,109.47071 3.97755,-10.467868 0.372242,0.24913 -3.81065,10.298878 z"
       id="path2"
       sodipodi:nodetypes="ccccc" />
  </g>
</svg>
